{
  "accessors": [
    {
      "bufferView": 2,
      "componentType": 5126,
      "count": 24307,
      "max": [
        0.032912001013755798,
        0.0075369998812675476,
        0.099905997514724731
      ],
      "min": [
        -0.032912001013755798,
        -0.012167000211775303,
        0.00015199999324977398
      ],
      "type": "VEC3"
    },
    {
      "bufferView": 2,
      "byteOffset": 291684,
      "componentType": 5126,
      "count": 24307,
      "max": [
        0.99998378753662109,
        0.99968677759170532,
        0.99962455034255981
      ],
      "min": [
        -0.99999165534973145,
        -0.99998509883880615,
        -0.99961179494857788
      ],
      "type": "VEC3"
    },
    {
      "bufferView": 3,
      "componentType": 5126,
      "count": 24307,
      "max": [
        0.99998950958251953,
        0.99985647201538086,
        0.99967026710510254,
        1
      ],
      "min": [
        -0.99999797344207764,
        -0.99945151805877686,
        -0.99968850612640381,
        -1
      ],
      "type": "VEC4"
    },
    {
      "bufferView": 1,
      "componentType": 5126,
      "count": 24307,
      "max": [
        0.9901999831199646,
        1.9883999824523926
      ],
      "min": [
        0.014299999922513962,
        1.013200044631958
      ],
      "type": "VEC2"
    },
    {
      "bufferView": 0,
      "componentType": 5125,
      "count": 38787,
      "max": [
        24306
      ],
      "min": [
        0
      ],
      "type": "SCALAR"
    }
  ],
  "asset": {
    "extras": {
      "author": "hwk10037 (https://sketchfab.com/hwk10037)",
      "license": "CC-BY-4.0 (http://creativecommons.org/licenses/by/4.0/)",
      "source": "https://sketchfab.com/3d-models/captain-america-aou-20-f8776d8e8dba43c7965d5fb67986449b",
      "title": "Captain America AOU 2.0"
    },
    "generator": "Sketchfab-5.17.0",
    "version": "2.0"
  },
  "bufferViews": [
    {
      "buffer": 0,
      "byteLength": 155148,
      "byteOffset": 0,
      "name": "floatBufferViews",
      "target": 34963
    },
    {
      "buffer": 0,
      "byteLength": 194456,
      "byteOffset": 155148,
      "byteStride": 8,
      "name": "floatBufferViews",
      "target": 34962
    },
    {
      "buffer": 0,
      "byteLength": 583368,
      "byteOffset": 349604,
      "byteStride": 12,
      "name": "floatBufferViews",
      "target": 34962
    },
    {
      "buffer": 0,
      "byteLength": 388912,
      "byteOffset": 932972,
      "byteStride": 16,
      "name": "floatBufferViews",
      "target": 34962
    }
  ],
  "buffers": [
    {
      "byteLength": 1321884,
      "uri": "scene.bin"
    }
  ],
  "images": [
    {
      "uri": "textures/Object001Mat_baseColor.png"
    }
  ],
  "materials": [
    {
      "doubleSided": true,
      "emissiveFactor": [
        0,
        0,
        0
      ],
      "name": "Object001Mat",
      "pbrMetallicRoughness": {
        "baseColorFactor": [
          1,
          1,
          1,
          1
        ],
        "baseColorTexture": {
          "index": 0,
          "texCoord": 0
        },
        "metallicFactor": 0,
        "roughnessFactor": 0.99686983080000002
      }
    }
  ],
  "meshes": [
    {
      "primitives": [
        {
          "attributes": {
            "NORMAL": 1,
            "POSITION": 0,
            "TANGENT": 2,
            "TEXCOORD_0": 3
          },
          "indices": 4,
          "material": 0,
          "mode": 4
        }
      ]
    }
  ],
  "nodes": [
    {
      "children": [
        1
      ],
      "name": "RootNode (gltf orientation matrix)",
      "rotation": [
        -0.70710678118654746,
        -0,
        -0,
        0.70710678118654757
      ]
    },
    {
      "children": [
        2
      ],
      "name": "RootNode (model correction matrix)"
    },
    {
      "children": [
        3
      ],
      "name": "untitled-scene.obj.cleaner.materialmerger.gles"
    },
    {
      "mesh": 0,
      "name": ""
    }
  ],
  "samplers": [
    {
      "magFilter": 9729,
      "minFilter": 9987,
      "wrapS": 10497,
      "wrapT": 10497
    }
  ],
  "scene": 0,
  "scenes": [
    {
      "name": "OSG_Scene",
      "nodes": [
        0
      ]
    }
  ],
  "textures": [
    {
      "sampler": 0,
      "source": 0
    }
  ]
}

